<svg width="46" height="46" viewBox="0 0 46 46" fill="none" xmlns="http://www.w3.org/2000/svg">
<path d="M18.8887 24.5851C19.6401 24.3168 20.125 23.6939 20.125 22.9981C20.125 22.3043 19.6401 21.6833 18.8887 21.415C13.4281 19.4619 10.5416 13.7138 10.5416 4.79174C10.5416 4.26274 10.971 3.83337 11.5 3.83337C12.029 3.83337 12.4584 4.26274 12.4584 4.79174C12.4584 12.9452 14.8389 17.9305 19.5327 19.6095C21.0565 20.1538 22.0416 21.4859 22.0416 23.002C22.0416 24.5161 21.0565 25.8463 19.5327 26.3906C14.8389 28.0696 12.4584 33.0549 12.4584 41.2084C12.4584 41.7374 12.029 42.1667 11.5 42.1667C10.971 42.1667 10.5416 41.7374 10.5416 41.2084C10.5416 32.2863 13.4281 26.5381 18.8887 24.5851Z" fill="#002136"/>
<path d="M26.4672 19.6094C31.1611 17.9304 33.5416 12.9451 33.5416 4.79162C33.5416 4.26262 33.971 3.83325 34.5 3.83325C35.029 3.83325 35.4583 4.26262 35.4583 4.79162C35.4583 13.7137 32.5718 19.4618 27.1112 21.4149C26.3599 21.6832 25.875 22.3061 25.875 23.0019C25.875 23.6957 26.3599 24.3167 27.1112 24.585C32.5718 26.5381 35.4583 32.2861 35.4583 41.2082C35.4583 41.7372 35.029 42.1666 34.5 42.1666C33.971 42.1666 33.5416 41.7372 33.5416 41.2082C33.5416 33.0548 31.1611 28.0695 26.4672 26.3905C24.9435 25.8461 23.9584 24.5141 23.9584 22.998C23.9584 21.4839 24.9435 20.1537 26.4672 19.6094Z" fill="#002136"/>
<path d="M9.58338 0H36.4167C38.0018 0 39.2917 1.28989 39.2917 2.875C39.2917 4.46011 38.0018 5.75 36.4167 5.75H9.58329C7.99818 5.75 6.70829 4.46011 6.70829 2.875C6.70838 1.28989 7.99827 0 9.58338 0ZM9.58338 3.83336H36.4167C36.9438 3.83336 37.375 3.404 37.375 2.875C37.375 2.346 36.9438 1.91664 36.4167 1.91664H9.58329C9.05627 1.91664 8.62502 2.346 8.62502 2.875C8.62502 3.404 9.05627 3.83336 9.58338 3.83336Z" fill="#002136"/>
<path d="M9.58338 40.25H36.4167C38.0018 40.25 39.2917 41.5399 39.2917 43.125C39.2917 44.7101 38.0018 46 36.4167 46H9.58329C7.99818 46 6.70829 44.7101 6.70829 43.125C6.70838 41.5399 7.99827 40.25 9.58338 40.25ZM9.58338 44.0834H36.4167C36.9438 44.0834 37.375 43.654 37.375 43.125C37.375 42.596 36.9438 42.1666 36.4167 42.1666H9.58329C9.05627 42.1666 8.62502 42.596 8.62502 43.125C8.62502 43.654 9.05627 44.0834 9.58338 44.0834Z" fill="#002136"/>
</svg>
