<svg width="48" height="48" viewBox="0 0 48 48" fill="none" xmlns="http://www.w3.org/2000/svg">
<path fill-rule="evenodd" clip-rule="evenodd" d="M27.3296 46.6556H4.35414C2.50457 46.6556 1 45.151 1 43.3015V4.35698C1 3.36799 1.43316 2.43649 2.18641 1.79633C2.93965 1.15617 3.93248 0.882088 4.90422 1.04692L25.9663 4.23815C27.6127 4.51223 28.7915 5.90372 28.7915 7.55012V18.1763L44.3549 21.4365C45.9188 21.7834 46.9998 23.1289 46.9998 24.714V43.3017C46.9998 45.1512 45.4953 46.6558 43.6457 46.6558H27.3541L27.3296 46.6556ZM4.04556 3.98898C4.09731 3.9449 4.20081 3.87782 4.35606 3.87782C4.38673 3.87782 4.41931 3.88165 4.45381 3.8874L25.5159 7.07671C25.7478 7.11504 25.9165 7.31438 25.9165 7.55012V43.7806H21.1249V36.5929C21.1249 34.7433 19.6203 33.2388 17.7707 33.2388H12.9791C11.1295 33.2388 9.62494 34.7433 9.62494 36.5929V43.7806H4.35414C4.08964 43.7806 3.87498 43.566 3.87498 43.3015V4.35698C3.87498 4.1634 3.98231 4.04457 4.04556 3.98898ZM43.6457 43.7808H28.7916V21.1126L43.7511 24.2463C43.9715 24.2961 44.1249 24.4878 44.1249 24.714V43.3017C44.1249 43.5662 43.9102 43.7808 43.6457 43.7808ZM12.4999 43.3012H18.2499V36.5929C18.2499 36.3284 18.0352 36.1138 17.7707 36.1138H12.9791C12.7146 36.1138 12.4999 36.3284 12.4999 36.5929V43.3012ZM9.14586 12.1557H12.0208C12.8143 12.1557 13.4583 11.5117 13.4583 10.7183C13.4583 9.92476 12.8143 9.28076 12.0208 9.28076H9.14586C8.35237 9.28076 7.70837 9.92476 7.70837 10.7183C7.70837 11.5117 8.35237 12.1557 9.14586 12.1557ZM21.6039 12.1557H18.729C17.9355 12.1557 17.2915 11.5117 17.2915 10.7183C17.2915 9.92476 17.9355 9.28076 18.729 9.28076H21.6039C22.3974 9.28076 23.0414 9.92476 23.0414 10.7183C23.0414 11.5117 22.3974 12.1557 21.6039 12.1557ZM9.14586 17.9057H12.0208C12.8143 17.9057 13.4583 17.2617 13.4583 16.4683C13.4583 15.6748 12.8143 15.0308 12.0208 15.0308H9.14586C8.35237 15.0308 7.70837 15.6748 7.70837 16.4683C7.70837 17.2617 8.35237 17.9057 9.14586 17.9057ZM21.6039 17.9057H18.729C17.9355 17.9057 17.2915 17.2617 17.2915 16.4683C17.2915 15.6748 17.9355 15.0308 18.729 15.0308H21.6039C22.3974 15.0308 23.0414 15.6748 23.0414 16.4683C23.0414 17.2617 22.3974 17.9057 21.6039 17.9057ZM9.14586 23.6557H12.0208C12.8143 23.6557 13.4583 23.0117 13.4583 22.2183C13.4583 21.4248 12.8143 20.7808 12.0208 20.7808H9.14586C8.35237 20.7808 7.70837 21.4248 7.70837 22.2183C7.70837 23.0117 8.35237 23.6557 9.14586 23.6557ZM21.6039 23.6557H18.729C17.9355 23.6557 17.2915 23.0117 17.2915 22.2183C17.2915 21.4248 17.9355 20.7808 18.729 20.7808H21.6039C22.3974 20.7808 23.0414 21.4248 23.0414 22.2183C23.0414 23.0117 22.3974 23.6557 21.6039 23.6557ZM9.14586 29.4057H12.0208C12.8143 29.4057 13.4583 28.7617 13.4583 27.9683C13.4583 27.1748 12.8143 26.5308 12.0208 26.5308H9.14586C8.35237 26.5308 7.70837 27.1748 7.70837 27.9683C7.70837 28.7617 8.35237 29.4057 9.14586 29.4057ZM21.6039 29.4057H18.729C17.9355 29.4057 17.2915 28.7617 17.2915 27.9683C17.2915 27.1748 17.9355 26.5308 18.729 26.5308H21.6039C22.3974 26.5308 23.0414 27.1748 23.0414 27.9683C23.0414 28.7617 22.3974 29.4057 21.6039 29.4057ZM35.0204 29.4057H37.8954C38.6889 29.4057 39.3329 28.7617 39.3329 27.9683C39.3329 27.1748 38.6889 26.5308 37.8954 26.5308H35.0204C34.2269 26.5308 33.5829 27.1748 33.5829 27.9683C33.5829 28.7617 34.2269 29.4057 35.0204 29.4057ZM37.8954 35.1557H35.0204C34.2269 35.1557 33.5829 34.5117 33.5829 33.7183C33.5829 32.9248 34.2269 32.2808 35.0204 32.2808H37.8954C38.6889 32.2808 39.3329 32.9248 39.3329 33.7183C39.3329 34.5117 38.6889 35.1557 37.8954 35.1557ZM35.0204 40.9057H37.8954C38.6889 40.9057 39.3329 40.2617 39.3329 39.4683C39.3329 38.6748 38.6889 38.0308 37.8954 38.0308H35.0204C34.2269 38.0308 33.5829 38.6748 33.5829 39.4683C33.5829 40.2617 34.2269 40.9057 35.0204 40.9057Z" fill="#002136"/>
<path d="M27.3296 46.6556L27.3338 46.1556H27.3296V46.6556ZM2.18641 1.79633L2.5102 2.17733L2.18641 1.79633ZM4.90422 1.04692L4.82059 1.53996L4.82932 1.54128L4.90422 1.04692ZM25.9663 4.23815L26.0484 3.74488L26.0412 3.74379L25.9663 4.23815ZM28.7915 18.1763H28.2915V18.5824L28.689 18.6657L28.7915 18.1763ZM44.3549 21.4365L44.4631 20.9483L44.4574 20.9471L44.3549 21.4365ZM27.3541 46.6558L27.35 47.1558H27.3541V46.6558ZM4.04556 3.98898L3.72129 3.60831L3.7155 3.6134L4.04556 3.98898ZM4.45381 3.8874L4.3716 4.38065L4.37895 4.38176L4.45381 3.8874ZM25.5159 7.07671L25.5975 6.58336L25.5908 6.58235L25.5159 7.07671ZM25.9165 43.7806V44.2806H26.4165V43.7806H25.9165ZM21.1249 43.7806H20.6249V44.2806H21.1249V43.7806ZM9.62494 43.7806V44.2806H10.1249V43.7806H9.62494ZM28.7916 43.7808H28.2916V44.2808H28.7916V43.7808ZM28.7916 21.1126L28.8942 20.6232L28.2916 20.497V21.1126H28.7916ZM43.7511 24.2463L43.8614 23.7585L43.8536 23.7569L43.7511 24.2463ZM18.2499 43.3012V43.8012H18.7499V43.3012H18.2499ZM12.4999 43.3012H11.9999V43.8012H12.4999V43.3012ZM4.35414 47.1556H27.3296V46.1556H4.35414V47.1556ZM0.5 43.3015C0.5 45.4272 2.22843 47.1556 4.35414 47.1556V46.1556C2.78071 46.1556 1.5 44.8749 1.5 43.3015H0.5ZM0.5 4.35698V43.3015H1.5V4.35698H0.5ZM1.86261 1.41534C0.998182 2.14999 0.5 3.22051 0.5 4.35698H1.5C1.5 3.51546 1.86815 2.72299 2.5102 2.17733L1.86261 1.41534ZM4.98784 0.553962C3.86974 0.364304 2.72792 0.679936 1.86261 1.41534L2.5102 2.17733C3.15139 1.6324 3.99522 1.39987 4.8206 1.53988L4.98784 0.553962ZM26.0412 3.74379L4.97913 0.552563L4.82932 1.54128L25.8914 4.73251L26.0412 3.74379ZM29.2915 7.55012C29.2915 5.65725 27.934 4.05883 26.0484 3.74494L25.8842 4.73136C27.2915 4.96563 28.2915 6.15019 28.2915 7.55012H29.2915ZM29.2915 18.1763V7.55012H28.2915V18.1763H29.2915ZM44.4574 20.9471L28.894 17.6869L28.689 18.6657L44.2523 21.9259L44.4574 20.9471ZM47.4998 24.714C47.4998 22.8927 46.2542 21.3456 44.4631 20.9483L44.2466 21.9246C45.5835 22.2212 46.4998 23.3651 46.4998 24.714H47.4998ZM47.4998 43.3017V24.714H46.4998V43.3017H47.4998ZM43.6457 47.1558C45.7714 47.1558 47.4998 45.4274 47.4998 43.3017H46.4998C46.4998 44.8751 45.2191 46.1558 43.6457 46.1558V47.1558ZM27.3541 47.1558H43.6457V46.1558H27.3541V47.1558ZM27.3254 47.1556L27.35 47.1558L27.3583 46.1558L27.3338 46.1556L27.3254 47.1556ZM4.35606 3.37782C4.04658 3.37782 3.83234 3.51379 3.72133 3.60836L4.36979 4.3696C4.36616 4.3727 4.36307 4.37467 4.35973 4.37611C4.35785 4.37692 4.35611 4.37745 4.35477 4.37774C4.35332 4.37806 4.35356 4.37782 4.35606 4.37782V3.37782ZM4.53601 3.3942C4.48914 3.38639 4.42603 3.37782 4.35606 3.37782V4.37782C4.35084 4.37782 4.34919 4.3775 4.3523 4.37782C4.35543 4.37815 4.36145 4.3789 4.37161 4.3806L4.53601 3.3942ZM25.5908 6.58235L4.52867 3.39304L4.37895 4.38176L25.4411 7.57107L25.5908 6.58235ZM26.4165 7.55012C26.4165 7.07079 26.0718 6.66181 25.5975 6.5834L25.4344 7.57002C25.4328 7.56977 25.4303 7.56901 25.4277 7.56748C25.4252 7.56604 25.4231 7.56426 25.4215 7.56236C25.418 7.55825 25.4165 7.55321 25.4165 7.55012H26.4165ZM26.4165 43.7806V7.55012H25.4165V43.7806H26.4165ZM21.1249 44.2806H25.9165V43.2806H21.1249V44.2806ZM20.6249 36.5929V43.7806H21.6249V36.5929H20.6249ZM17.7707 33.7388C19.3441 33.7388 20.6249 35.0195 20.6249 36.5929H21.6249C21.6249 34.4672 19.8964 32.7388 17.7707 32.7388V33.7388ZM12.9791 33.7388H17.7707V32.7388H12.9791V33.7388ZM10.1249 36.5929C10.1249 35.0195 11.4057 33.7388 12.9791 33.7388V32.7388C10.8534 32.7388 9.12494 34.4672 9.12494 36.5929H10.1249ZM10.1249 43.7806V36.5929H9.12494V43.7806H10.1249ZM4.35414 44.2806H9.62494V43.2806H4.35414V44.2806ZM3.37498 43.3015C3.37498 43.8421 3.8135 44.2806 4.35414 44.2806V43.2806C4.35621 43.2806 4.35938 43.2811 4.36256 43.2825C4.3654 43.2837 4.36745 43.2852 4.36893 43.2867C4.3704 43.2881 4.37191 43.2902 4.37312 43.293C4.37446 43.2962 4.37498 43.2994 4.37498 43.3015H3.37498ZM3.37498 4.35698V43.3015H4.37498V4.35698H3.37498ZM3.7155 3.6134C3.60106 3.71397 3.37498 3.95816 3.37498 4.35698H4.37498C4.37498 4.35547 4.3751 4.35733 4.37401 4.36119C4.373 4.36476 4.37168 4.36755 4.37078 4.36912C4.37001 4.37046 4.36984 4.37045 4.37087 4.36925C4.3719 4.36806 4.37344 4.36648 4.37562 4.36456L3.7155 3.6134ZM28.7916 44.2808H43.6457V43.2808H28.7916V44.2808ZM28.2916 21.1126V43.7808H29.2916V21.1126H28.2916ZM43.8536 23.7569L28.8942 20.6232L28.6891 21.6019L43.6486 24.7357L43.8536 23.7569ZM44.6249 24.714C44.6249 24.254 44.3096 23.8599 43.8614 23.7586L43.6409 24.734C43.6409 24.734 43.6407 24.7339 43.6405 24.7339C43.6402 24.7338 43.6399 24.7337 43.6395 24.7335C43.6386 24.7331 43.6376 24.7326 43.6365 24.7319C43.6342 24.7305 43.632 24.7286 43.6301 24.7262C43.6282 24.7238 43.6268 24.7213 43.6259 24.7187C43.6255 24.7174 43.6252 24.7163 43.625 24.7154C43.6249 24.715 43.6249 24.7146 43.6249 24.7143C43.6249 24.7141 43.6249 24.7139 43.6249 24.714H44.6249ZM44.6249 43.3017V24.714H43.6249V43.3017H44.6249ZM43.6457 44.2808C44.1863 44.2808 44.6249 43.8423 44.6249 43.3017H43.6249C43.6249 43.2996 43.6254 43.2964 43.6267 43.2932C43.6279 43.2904 43.6294 43.2883 43.6309 43.2869C43.6324 43.2854 43.6344 43.2839 43.6373 43.2827C43.6405 43.2813 43.6436 43.2808 43.6457 43.2808V44.2808ZM18.2499 42.8012H12.4999V43.8012H18.2499V42.8012ZM17.7499 36.5929V43.3012H18.7499V36.5929H17.7499ZM17.7707 36.6138C17.7686 36.6138 17.7655 36.6132 17.7623 36.6119C17.7595 36.6107 17.7574 36.6092 17.7559 36.6077C17.7545 36.6062 17.7529 36.6042 17.7517 36.6013C17.7504 36.5981 17.7499 36.595 17.7499 36.5929H18.7499C18.7499 36.0523 18.3114 35.6138 17.7707 35.6138V36.6138ZM12.9791 36.6138H17.7707V35.6138H12.9791V36.6138ZM12.9999 36.5929C12.9999 36.595 12.9994 36.5981 12.9981 36.6013C12.9969 36.6042 12.9953 36.6062 12.9939 36.6077C12.9924 36.6092 12.9903 36.6107 12.9875 36.6119C12.9843 36.6132 12.9811 36.6138 12.9791 36.6138V35.6138C12.4384 35.6138 11.9999 36.0523 11.9999 36.5929H12.9999ZM12.9999 43.3012V36.5929H11.9999V43.3012H12.9999ZM12.0208 11.6557H9.14586V12.6557H12.0208V11.6557ZM12.9583 10.7183C12.9583 11.2356 12.5382 11.6557 12.0208 11.6557V12.6557C13.0905 12.6557 13.9583 11.7879 13.9583 10.7183H12.9583ZM12.0208 9.78076C12.5382 9.78076 12.9583 10.2009 12.9583 10.7183H13.9583C13.9583 9.64861 13.0905 8.78076 12.0208 8.78076V9.78076ZM9.14586 9.78076H12.0208V8.78076H9.14586V9.78076ZM8.20837 10.7183C8.20837 10.2009 8.62851 9.78076 9.14586 9.78076V8.78076C8.07623 8.78076 7.20837 9.64861 7.20837 10.7183H8.20837ZM9.14586 11.6557C8.62851 11.6557 8.20837 11.2356 8.20837 10.7183H7.20837C7.20837 11.7879 8.07623 12.6557 9.14586 12.6557V11.6557ZM18.729 12.6557H21.6039V11.6557H18.729V12.6557ZM16.7915 10.7183C16.7915 11.7879 17.6593 12.6557 18.729 12.6557V11.6557C18.2116 11.6557 17.7915 11.2356 17.7915 10.7183H16.7915ZM18.729 8.78076C17.6593 8.78076 16.7915 9.64861 16.7915 10.7183H17.7915C17.7915 10.2009 18.2116 9.78076 18.729 9.78076V8.78076ZM21.6039 8.78076H18.729V9.78076H21.6039V8.78076ZM23.5414 10.7183C23.5414 9.64861 22.6736 8.78076 21.6039 8.78076V9.78076C22.1213 9.78076 22.5414 10.2009 22.5414 10.7183H23.5414ZM21.6039 12.6557C22.6736 12.6557 23.5414 11.7879 23.5414 10.7183H22.5414C22.5414 11.2356 22.1213 11.6557 21.6039 11.6557V12.6557ZM12.0208 17.4057H9.14586V18.4057H12.0208V17.4057ZM12.9583 16.4683C12.9583 16.9856 12.5382 17.4057 12.0208 17.4057V18.4057C13.0905 18.4057 13.9583 17.5379 13.9583 16.4683H12.9583ZM12.0208 15.5308C12.5382 15.5308 12.9583 15.9509 12.9583 16.4683H13.9583C13.9583 15.3986 13.0905 14.5308 12.0208 14.5308V15.5308ZM9.14586 15.5308H12.0208V14.5308H9.14586V15.5308ZM8.20837 16.4683C8.20837 15.9509 8.62851 15.5308 9.14586 15.5308V14.5308C8.07623 14.5308 7.20837 15.3986 7.20837 16.4683H8.20837ZM9.14586 17.4057C8.62851 17.4057 8.20837 16.9856 8.20837 16.4683H7.20837C7.20837 17.5379 8.07623 18.4057 9.14586 18.4057V17.4057ZM18.729 18.4057H21.6039V17.4057H18.729V18.4057ZM16.7915 16.4683C16.7915 17.5379 17.6593 18.4057 18.729 18.4057V17.4057C18.2116 17.4057 17.7915 16.9856 17.7915 16.4683H16.7915ZM18.729 14.5308C17.6593 14.5308 16.7915 15.3986 16.7915 16.4683H17.7915C17.7915 15.9509 18.2116 15.5308 18.729 15.5308V14.5308ZM21.6039 14.5308H18.729V15.5308H21.6039V14.5308ZM23.5414 16.4683C23.5414 15.3986 22.6736 14.5308 21.6039 14.5308V15.5308C22.1213 15.5308 22.5414 15.9509 22.5414 16.4683H23.5414ZM21.6039 18.4057C22.6736 18.4057 23.5414 17.5379 23.5414 16.4683H22.5414C22.5414 16.9856 22.1213 17.4057 21.6039 17.4057V18.4057ZM12.0208 23.1557H9.14586V24.1557H12.0208V23.1557ZM12.9583 22.2183C12.9583 22.7356 12.5382 23.1557 12.0208 23.1557V24.1557C13.0905 24.1557 13.9583 23.2879 13.9583 22.2183H12.9583ZM12.0208 21.2808C12.5382 21.2808 12.9583 21.7009 12.9583 22.2183H13.9583C13.9583 21.1486 13.0905 20.2808 12.0208 20.2808V21.2808ZM9.14586 21.2808H12.0208V20.2808H9.14586V21.2808ZM8.20837 22.2183C8.20837 21.7009 8.62851 21.2808 9.14586 21.2808V20.2808C8.07623 20.2808 7.20837 21.1486 7.20837 22.2183H8.20837ZM9.14586 23.1557C8.62851 23.1557 8.20837 22.7356 8.20837 22.2183H7.20837C7.20837 23.2879 8.07623 24.1557 9.14586 24.1557V23.1557ZM18.729 24.1557H21.6039V23.1557H18.729V24.1557ZM16.7915 22.2183C16.7915 23.2879 17.6593 24.1557 18.729 24.1557V23.1557C18.2116 23.1557 17.7915 22.7356 17.7915 22.2183H16.7915ZM18.729 20.2808C17.6593 20.2808 16.7915 21.1486 16.7915 22.2183H17.7915C17.7915 21.7009 18.2116 21.2808 18.729 21.2808V20.2808ZM21.6039 20.2808H18.729V21.2808H21.6039V20.2808ZM23.5414 22.2183C23.5414 21.1486 22.6736 20.2808 21.6039 20.2808V21.2808C22.1213 21.2808 22.5414 21.7009 22.5414 22.2183H23.5414ZM21.6039 24.1557C22.6736 24.1557 23.5414 23.2879 23.5414 22.2183H22.5414C22.5414 22.7356 22.1213 23.1557 21.6039 23.1557V24.1557ZM12.0208 28.9057H9.14586V29.9057H12.0208V28.9057ZM12.9583 27.9683C12.9583 28.4856 12.5382 28.9057 12.0208 28.9057V29.9057C13.0905 29.9057 13.9583 29.0379 13.9583 27.9683H12.9583ZM12.0208 27.0308C12.5382 27.0308 12.9583 27.4509 12.9583 27.9683H13.9583C13.9583 26.8986 13.0905 26.0308 12.0208 26.0308V27.0308ZM9.14586 27.0308H12.0208V26.0308H9.14586V27.0308ZM8.20837 27.9683C8.20837 27.4509 8.62851 27.0308 9.14586 27.0308V26.0308C8.07623 26.0308 7.20837 26.8986 7.20837 27.9683H8.20837ZM9.14586 28.9057C8.62851 28.9057 8.20837 28.4856 8.20837 27.9683H7.20837C7.20837 29.0379 8.07623 29.9057 9.14586 29.9057V28.9057ZM18.729 29.9057H21.6039V28.9057H18.729V29.9057ZM16.7915 27.9683C16.7915 29.0379 17.6593 29.9057 18.729 29.9057V28.9057C18.2116 28.9057 17.7915 28.4856 17.7915 27.9683H16.7915ZM18.729 26.0308C17.6593 26.0308 16.7915 26.8986 16.7915 27.9683H17.7915C17.7915 27.4509 18.2116 27.0308 18.729 27.0308V26.0308ZM21.6039 26.0308H18.729V27.0308H21.6039V26.0308ZM23.5414 27.9683C23.5414 26.8986 22.6736 26.0308 21.6039 26.0308V27.0308C22.1213 27.0308 22.5414 27.4509 22.5414 27.9683H23.5414ZM21.6039 29.9057C22.6736 29.9057 23.5414 29.0379 23.5414 27.9683H22.5414C22.5414 28.4856 22.1213 28.9057 21.6039 28.9057V29.9057ZM37.8954 28.9057H35.0204V29.9057H37.8954V28.9057ZM38.8329 27.9683C38.8329 28.4856 38.4128 28.9057 37.8954 28.9057V29.9057C38.9651 29.9057 39.8329 29.0379 39.8329 27.9683H38.8329ZM37.8954 27.0308C38.4128 27.0308 38.8329 27.4509 38.8329 27.9683H39.8329C39.8329 26.8986 38.9651 26.0308 37.8954 26.0308V27.0308ZM35.0204 27.0308H37.8954V26.0308H35.0204V27.0308ZM34.0829 27.9683C34.0829 27.4509 34.5031 27.0308 35.0204 27.0308V26.0308C33.9508 26.0308 33.0829 26.8986 33.0829 27.9683H34.0829ZM35.0204 28.9057C34.5031 28.9057 34.0829 28.4856 34.0829 27.9683H33.0829C33.0829 29.0379 33.9508 29.9057 35.0204 29.9057V28.9057ZM35.0204 35.6557H37.8954V34.6557H35.0204V35.6557ZM33.0829 33.7183C33.0829 34.7879 33.9508 35.6557 35.0204 35.6557V34.6557C34.5031 34.6557 34.0829 34.2356 34.0829 33.7183H33.0829ZM35.0204 31.7808C33.9508 31.7808 33.0829 32.6486 33.0829 33.7183H34.0829C34.0829 33.2009 34.5031 32.7808 35.0204 32.7808V31.7808ZM37.8954 31.7808H35.0204V32.7808H37.8954V31.7808ZM39.8329 33.7183C39.8329 32.6486 38.9651 31.7808 37.8954 31.7808V32.7808C38.4128 32.7808 38.8329 33.2009 38.8329 33.7183H39.8329ZM37.8954 35.6557C38.9651 35.6557 39.8329 34.7879 39.8329 33.7183H38.8329C38.8329 34.2356 38.4128 34.6557 37.8954 34.6557V35.6557ZM37.8954 40.4057H35.0204V41.4057H37.8954V40.4057ZM38.8329 39.4683C38.8329 39.9856 38.4128 40.4057 37.8954 40.4057V41.4057C38.9651 41.4057 39.8329 40.5379 39.8329 39.4683H38.8329ZM37.8954 38.5308C38.4128 38.5308 38.8329 38.9509 38.8329 39.4683H39.8329C39.8329 38.3986 38.9651 37.5308 37.8954 37.5308V38.5308ZM35.0204 38.5308H37.8954V37.5308H35.0204V38.5308ZM34.0829 39.4683C34.0829 38.9509 34.5031 38.5308 35.0204 38.5308V37.5308C33.9508 37.5308 33.0829 38.3986 33.0829 39.4683H34.0829ZM35.0204 40.4057C34.5031 40.4057 34.0829 39.9856 34.0829 39.4683H33.0829C33.0829 40.5379 33.9508 41.4057 35.0204 41.4057V40.4057Z" fill="white"/>
</svg>
