<svg width="122" height="105" viewBox="0 0 122 105" fill="none" xmlns="http://www.w3.org/2000/svg">
<rect width="122" height="105" fill="#CE202F"/>
<path d="M23.1035 59.2539H33.8438V64H16.9336V38.4062H23.1035V59.2539ZM56.9941 51.7305C56.9941 54.2266 56.5312 56.4355 55.6055 58.3574C54.6797 60.2793 53.3613 61.7617 51.6504 62.8047C49.9512 63.8359 48.0117 64.3516 45.832 64.3516C43.6523 64.3516 41.7188 63.8535 40.0312 62.8574C38.3438 61.8496 37.0254 60.4141 36.0762 58.5508C35.1387 56.6875 34.6465 54.5488 34.5996 52.1348V50.6934C34.5996 48.1855 35.0566 45.9766 35.9707 44.0664C36.8965 42.1445 38.2148 40.6621 39.9258 39.6191C41.6484 38.5762 43.6055 38.0547 45.7969 38.0547C47.9648 38.0547 49.8984 38.5703 51.5977 39.6016C53.2969 40.6328 54.6152 42.1035 55.5527 44.0137C56.502 45.9121 56.9824 48.0918 56.9941 50.5527V51.7305ZM50.7188 50.6582C50.7188 48.1152 50.291 46.1875 49.4355 44.875C48.5918 43.5508 47.3789 42.8887 45.7969 42.8887C42.7031 42.8887 41.0684 45.209 40.8926 49.8496L40.875 51.7305C40.875 54.2383 41.291 56.166 42.123 57.5137C42.9551 58.8613 44.1914 59.5352 45.832 59.5352C47.3906 59.5352 48.5918 58.873 49.4355 57.5488C50.2793 56.2246 50.707 54.3203 50.7188 51.8359V50.6582ZM81.1289 60.8359C80.1797 61.8906 78.791 62.7402 76.9629 63.3848C75.1348 64.0293 73.1309 64.3516 70.9512 64.3516C67.5996 64.3516 64.9219 63.3262 62.918 61.2754C60.9141 59.2246 59.8418 56.3711 59.7012 52.7148L59.6836 50.5C59.6836 47.9805 60.1289 45.7832 61.0195 43.9082C61.9102 42.0215 63.1816 40.5742 64.834 39.5664C66.498 38.5469 68.4199 38.0371 70.5996 38.0371C73.7871 38.0371 76.2598 38.7695 78.0176 40.2344C79.7871 41.6875 80.8184 43.8613 81.1113 46.7559H75.1699C74.959 45.3262 74.502 44.3066 73.7988 43.6973C73.0957 43.0879 72.0996 42.7832 70.8105 42.7832C69.2637 42.7832 68.0684 43.4395 67.2246 44.752C66.3809 46.0645 65.9531 47.9395 65.9414 50.377V51.9238C65.9414 54.4785 66.375 56.4004 67.2422 57.6895C68.1211 58.9668 69.498 59.6055 71.373 59.6055C72.9785 59.6055 74.1738 59.248 74.959 58.5332V54.5605H70.6699V50.3242H81.1289V60.8359ZM106.389 51.7305C106.389 54.2266 105.926 56.4355 105 58.3574C104.074 60.2793 102.756 61.7617 101.045 62.8047C99.3457 63.8359 97.4062 64.3516 95.2266 64.3516C93.0469 64.3516 91.1133 63.8535 89.4258 62.8574C87.7383 61.8496 86.4199 60.4141 85.4707 58.5508C84.5332 56.6875 84.041 54.5488 83.9941 52.1348V50.6934C83.9941 48.1855 84.4512 45.9766 85.3652 44.0664C86.291 42.1445 87.6094 40.6621 89.3203 39.6191C91.043 38.5762 93 38.0547 95.1914 38.0547C97.3594 38.0547 99.293 38.5703 100.992 39.6016C102.691 40.6328 104.01 42.1035 104.947 44.0137C105.896 45.9121 106.377 48.0918 106.389 50.5527V51.7305ZM100.113 50.6582C100.113 48.1152 99.6855 46.1875 98.8301 44.875C97.9863 43.5508 96.7734 42.8887 95.1914 42.8887C92.0977 42.8887 90.4629 45.209 90.2871 49.8496L90.2695 51.7305C90.2695 54.2383 90.6855 56.166 91.5176 57.5137C92.3496 58.8613 93.5859 59.5352 95.2266 59.5352C96.7852 59.5352 97.9863 58.873 98.8301 57.5488C99.6738 56.2246 100.102 54.3203 100.113 51.8359V50.6582Z" fill="white"/>
</svg>
