<svg width="230" height="90" viewBox="0 0 230 90" fill="none" xmlns="http://www.w3.org/2000/svg">
<path fill-rule="evenodd" clip-rule="evenodd" d="M32.908 7.26462L31.8811 7.85716L48.8127 17.6276L47.7681 18.2324L30.8337 8.46203L29.761 9.0806L46.696 18.8517L45.6109 19.4792L28.6759 9.70808L27.6025 10.3266L44.5396 20.0984L43.4545 20.7266L26.5167 10.9541L25.4447 11.5734L42.3831 21.3465L41.2981 21.9733L24.3582 12.2002L23.2862 12.8187L40.2267 22.594L39.1416 23.2207L22.1998 13.4455L21.1277 14.0655L38.0703 23.8407L36.9859 24.4689L20.0413 14.693L18.9699 15.3122L35.9131 25.0874L33.7567 26.3355V44.9098L16.8546 35.151L16.845 16.5774L33.7567 26.3355L34.8281 25.7149L17.8835 15.939L16.8107 16.5583L0.766903 25.8492V43.4932L0.762108 44.431V63.0354L1.78895 63.6279L17.693 72.8058L34.6383 82.5837L35.7097 81.9638L18.8117 72.2139L19.894 71.5851L36.7948 81.3363L37.8668 80.7171L20.9626 70.9645L22.0456 70.3356L38.9519 80.0896L40.0226 79.4697L23.1149 69.7143L24.1973 69.0855L41.1076 78.8422L42.179 78.2222L25.2659 68.4635L26.3496 67.8346L43.2641 77.5948L44.3354 76.9755L27.4182 67.2147L28.5012 66.5845L45.4205 76.348L46.4925 75.7274L29.5692 65.9645L30.6522 65.3357L47.5776 75.0999L48.649 74.4807L31.7215 64.715L32.7655 64.1067L49.6943 73.8765L50.7013 73.2935L66.7787 64.0506V46.3545V45.4044V26.8096L50.0033 17.1241L32.908 7.26462ZM49.8523 35.6318L49.8352 18.2118L65.7564 27.3985L65.7523 44.8117L49.8523 35.6318ZM14.7863 36.3525L15.8316 35.7455L32.7502 45.5084L31.7042 46.1133L14.7863 36.3525ZM47.7836 36.8335L48.829 36.2266L65.7524 45.9922V45.997L64.7118 46.5998L47.7836 36.8335ZM12.6346 37.6025L13.7177 36.9736L30.6328 46.7331L29.5477 47.3606L12.6346 37.6025ZM45.6328 38.0826L46.7151 37.4537L63.6398 47.2193L62.5554 47.8468L45.6328 38.0826ZM10.483 38.8528L11.566 38.2226L28.4771 47.9807L27.392 48.6075L10.483 38.8528ZM43.4804 39.3325L44.5634 38.7037L61.484 48.4652L60.399 49.0927L43.4804 39.3325ZM8.33137 40.1025L9.41439 39.4736L26.32 49.2276L25.2349 49.8551L8.33137 40.1025ZM41.3287 40.5835L42.4118 39.9547L59.3276 49.7141L58.2418 50.3416L41.3287 40.5835ZM6.17974 41.3525L7.26207 40.7236L24.1635 50.4748L23.0785 51.1023L6.17974 41.3525ZM39.1784 41.8335L40.26 41.2047L57.1704 50.9614L56.0853 51.5889L39.1784 41.8335ZM4.02811 42.6024L5.11112 41.9736L22.0064 51.7214L20.9213 52.3489L4.02811 42.6024ZM37.0255 43.0835L38.1085 42.4547L55.0141 52.2073L55.9518 51.6654L53.929 52.8348L37.0255 43.0835ZM1.87647 43.8524L2.95948 43.2236L19.85 52.9687L18.7649 53.5961L1.87647 43.8524ZM34.8746 44.3325L35.9569 43.7037L52.857 53.4549L51.7726 54.0824L34.8746 44.3325ZM33.7887 63.5124L33.7723 44.9347L50.7011 54.7024V73.2774L33.7887 63.5124ZM1.78889 62.4426L1.78409 45.0363L17.6936 54.2163V71.6253L1.78889 62.4426Z" fill="#CE202F"/>
<path fill-rule="evenodd" clip-rule="evenodd" d="M226.435 49.2995H230V32.4768H226.435V49.2995ZM207.978 40.4076H211.424C212.922 40.4076 214.23 39.7342 214.23 38.0278C214.23 36.2988 212.922 35.6481 211.424 35.6481H207.978V40.4076ZM204.413 49.2998V32.4778H211.257C214.491 32.4778 217.867 33.7026 217.867 37.9565C217.867 40.8405 216.25 42.3057 214.23 42.9558L219.197 49.2998H215.085L210.591 43.4113H207.978V49.2998H204.413ZM185.929 43.1711H191.302L188.972 37.1402C188.854 36.8038 188.736 36.4675 188.616 35.8174C188.496 36.4675 188.378 36.8038 188.237 37.1402L185.929 43.1711ZM179.893 49.2998L186.692 32.4778H190.542L197.316 49.2998H193.633L192.419 46.1507H184.813L183.576 49.2998H179.893ZM172.796 32.4778V49.2998H169.23V38.9423L163.797 47.2858L158.366 38.9169V49.2998H154.8V32.4778H158.105L163.809 41.2261L169.49 32.4778H172.796ZM146.159 32.4778V42.3181C146.159 47.2913 138.862 50.2636 138.862 50.2636C138.862 50.2636 131.566 47.2913 131.566 42.3181V32.4778H135.131V42.1256C135.131 44.7923 138.862 46.4309 138.862 46.4309C138.862 46.4309 142.618 44.7923 142.618 42.1256V32.4778H146.159ZM116.605 32.4778V46.0548H124.757V49.2998H113.037V32.4778H116.605ZM98.4073 35.6481H95.5309V40.5987H98.4073C100.238 40.5987 101.783 40.0945 101.783 38.1244C101.783 36.1303 100.238 35.6481 98.4073 35.6481ZM98.2409 32.4773C102.259 32.4773 105.421 33.7741 105.421 38.1246C105.421 42.4738 102.259 43.7712 98.2409 43.7712H95.531V49.2993H91.9661V32.4773H98.2409Z" fill="#63666A"/>
<path fill-rule="evenodd" clip-rule="evenodd" d="M106.813 67.1569H104.988V69.9278H106.813C107.69 69.9278 108.286 69.4243 108.286 68.5468C108.286 67.6706 107.69 67.1569 106.813 67.1569ZM106.883 71.0736H104.988V74.3473H103.726V66.0215H106.883C108.509 66.0215 109.549 67.0984 109.549 68.5465C109.549 69.9974 108.509 71.0736 106.883 71.0736Z" fill="#63666A"/>
<path fill-rule="evenodd" clip-rule="evenodd" d="M115.734 67.1569H113.862V69.7633H115.734C116.576 69.7633 117.148 69.2832 117.148 68.4659C117.148 67.6473 116.576 67.1569 115.734 67.1569ZM117.195 74.3473L115.441 70.84H113.862V74.3473H112.6V66.0215H115.828C117.405 66.0215 118.412 67.0388 118.412 68.4547C118.412 69.6467 117.686 70.407 116.751 70.6639L118.669 74.3473H117.195Z" fill="#63666A"/>
<path fill-rule="evenodd" clip-rule="evenodd" d="M125.708 67.6005C125.416 67.2854 124.96 67.0867 124.468 67.0867C123.978 67.0867 123.521 67.2854 123.229 67.6005C122.82 68.0457 122.738 68.5129 122.738 70.1844C122.738 71.8572 122.82 72.3251 123.229 72.7689C123.521 73.0854 123.978 73.2841 124.468 73.2841C124.96 73.2841 125.416 73.0854 125.708 72.7689C126.117 72.3251 126.199 71.8572 126.199 70.1844C126.199 68.5129 126.117 68.0457 125.708 67.6005ZM126.666 73.5285C126.094 74.1019 125.357 74.417 124.468 74.417C123.58 74.417 122.854 74.1019 122.282 73.5285C121.464 72.7099 121.474 71.7865 121.474 70.1836C121.474 68.5827 121.464 67.6579 122.282 66.8393C122.854 66.2673 123.58 65.9508 124.468 65.9508C125.357 65.9508 126.094 66.2673 126.666 66.8393C127.485 67.6579 127.461 68.5827 127.461 70.1836C127.461 71.7865 127.485 72.7099 126.666 73.5285Z" fill="#63666A"/>
<path fill-rule="evenodd" clip-rule="evenodd" d="M133.939 67.1569H132.115V69.9278H133.939C134.816 69.9278 135.412 69.4243 135.412 68.5468C135.412 67.6706 134.816 67.1569 133.939 67.1569ZM134.009 71.0736H132.114V74.3473H130.852V66.0215H134.009C135.635 66.0215 136.675 67.0984 136.675 68.5465C136.675 69.9974 135.635 71.0736 134.009 71.0736Z" fill="#63666A"/>
<path fill-rule="evenodd" clip-rule="evenodd" d="M139.726 74.3473V66.0215H145.047V67.1566H140.989V69.5884H144.451V70.7098H140.989V73.2136H145.047V74.3473H139.726Z" fill="#63666A"/>
<path fill-rule="evenodd" clip-rule="evenodd" d="M151.431 67.1569H149.559V69.7633H151.431C152.274 69.7633 152.846 69.2832 152.846 68.4659C152.846 67.6473 152.274 67.1569 151.431 67.1569ZM152.892 74.3473L151.139 70.84H149.56V74.3473H148.297V66.0215H151.525C153.103 66.0215 154.109 67.0388 154.109 68.4547C154.109 69.6467 153.383 70.407 152.448 70.6639L154.366 74.3473H152.892Z" fill="#63666A"/>
<path fill-rule="evenodd" clip-rule="evenodd" d="M160.294 67.1566V74.3473H159.03V67.1566H156.738V66.0215H162.585V67.1566H160.294Z" fill="#63666A"/>
<path fill-rule="evenodd" clip-rule="evenodd" d="M168.267 70.9208V74.3473H167.005V70.9208L164.513 66.0215H165.893L167.635 69.6816L169.378 66.0215H170.757L168.267 70.9208Z" fill="#63666A"/>
<path fill-rule="evenodd" clip-rule="evenodd" d="M182.03 73.4703C181.399 74.1375 180.616 74.417 179.738 74.417C178.873 74.417 178.125 74.1019 177.553 73.5285C176.734 72.7106 176.744 71.7865 176.744 70.1842C176.744 68.5827 176.734 67.6593 177.553 66.84C178.125 66.2673 178.85 65.9508 179.738 65.9508C181.504 65.9508 182.533 67.1085 182.767 68.5354H181.493C181.282 67.6237 180.674 67.0859 179.738 67.0859C179.247 67.0859 178.803 67.2846 178.511 67.601C178.102 68.0449 178.008 68.5128 178.008 70.1842C178.008 71.8577 178.102 72.3366 178.511 72.7805C178.803 73.0956 179.247 73.284 179.738 73.284C180.288 73.284 180.767 73.073 181.095 72.6983C181.399 72.3469 181.515 71.9269 181.515 71.3885V70.9206H179.738V69.8452H182.779V71.1193C182.779 72.1968 182.58 72.8853 182.03 73.4703Z" fill="#63666A"/>
<path fill-rule="evenodd" clip-rule="evenodd" d="M189.29 67.1569H187.418V69.7633H189.29C190.132 69.7633 190.704 69.2832 190.704 68.4659C190.704 67.6473 190.132 67.1569 189.29 67.1569ZM190.751 74.3473L188.997 70.84H187.418V74.3473H186.156V66.0215H189.384C190.961 66.0215 191.968 67.0388 191.968 68.4547C191.968 69.6467 191.242 70.407 190.307 70.6639L192.225 74.3473H190.751Z" fill="#63666A"/>
<path fill-rule="evenodd" clip-rule="evenodd" d="M198.796 67.6005C198.505 67.2854 198.048 67.0867 197.557 67.0867C197.067 67.0867 196.61 67.2854 196.318 67.6005C195.909 68.0457 195.827 68.5129 195.827 70.1844C195.827 71.8572 195.909 72.3251 196.318 72.7689C196.61 73.0854 197.067 73.2841 197.557 73.2841C198.048 73.2841 198.505 73.0854 198.796 72.7689C199.205 72.3251 199.288 71.8572 199.288 70.1844C199.288 68.5129 199.205 68.0457 198.796 67.6005ZM199.755 73.5285C199.183 74.1019 198.446 74.417 197.557 74.417C196.669 74.417 195.943 74.1019 195.371 73.5285C194.553 72.7099 194.563 71.7865 194.563 70.1836C194.563 68.5827 194.553 67.6579 195.371 66.8393C195.943 66.2673 196.669 65.9508 197.557 65.9508C198.446 65.9508 199.183 66.2673 199.755 66.8393C200.574 67.6579 200.55 68.5827 200.55 70.1836C200.55 71.7865 200.574 72.7099 199.755 73.5285Z" fill="#63666A"/>
<path fill-rule="evenodd" clip-rule="evenodd" d="M206.326 74.4168C204.631 74.4168 203.345 73.2591 203.345 71.5397V66.0206H204.607V71.4815C204.607 72.5926 205.285 73.2831 206.326 73.2831C207.367 73.2831 208.057 72.5926 208.057 71.4815V66.0206H209.32V71.5397C209.32 73.2591 208.022 74.4168 206.326 74.4168Z" fill="#63666A"/>
<path fill-rule="evenodd" clip-rule="evenodd" d="M215.505 67.1569H213.68V69.9278H215.505C216.382 69.9278 216.978 69.4243 216.978 68.5468C216.978 67.6706 216.382 67.1569 215.505 67.1569ZM215.575 71.0736H213.68V74.3473H212.418V66.0215H215.575C217.2 66.0215 218.24 67.0984 218.24 68.5465C218.24 69.9974 217.2 71.0736 215.575 71.0736Z" fill="#63666A"/>
</svg>
